# xmcd CD database file
#
# Track frame offsets:
#	150
#	17457
#	35419
#	51090
#	66006
#	83893
#	101363
#	121625
#	141595
#	157852
#	185134
#	208607
#
# Disc length: 3025 seconds
#
# Revision: 1
# Processed by: cddbd v1.5.2PL0 Copyright (c) Steve Scherf et al.
# Submitted via: CDex 1.51
#
DISCID=990bcf0c
DTITLE=Paul Jones and Dave Kelly - Live At The Ram Jam Club
DYEAR=2007
DGENRE=Blues
TTITLE0=I Can't Be Satisfied
TTITLE1=Baby What You Want Me To Do
TTITLE2=Moon Going Down
TTITLE3=Without You
TTITLE4=Velocity And Love
TTITLE5=Mr. Estes Said
TTITLE6=Nobody's Fault But Mine
TTITLE7=Few Short Line
TTITLE8=Noah Lewis Blues
TTITLE9=Skin Game Blues
TTITLE10=D Day Blues
TTITLE11=Mean Old Frisco
EXTD=YEAR: 2007
EXTT0=
EXTT1=
EXTT2=
EXTT3=
EXTT4=
EXTT5=
EXTT6=
EXTT7=
EXTT8=
EXTT9=
EXTT10=
EXTT11=
PLAYORDER=
